<svg width="611" height="256" viewBox="0 0 611 256" fill="none" xmlns="http://www.w3.org/2000/svg">
<path fill-rule="evenodd" clip-rule="evenodd" d="M267.305 40.8445C277.687 31.6047 291.102 26.5 305 26.5C318.898 26.5 332.313 31.6047 342.695 40.8445C353.032 50.0445 359.647 62.7059 361.296 76.4417C361.052 84.6068 359.224 92.6475 355.915 100.117C355.355 101.379 355.925 102.856 357.187 103.415C358.45 103.975 359.927 103.405 360.486 102.143C364.084 94.0221 366.059 85.2761 366.299 76.3974C366.303 76.2779 366.297 76.1583 366.283 76.0396C365.722 71.2335 364.602 66.5469 362.968 62.0661C377.781 62.5241 389.882 67.2934 398.381 75.3447C407.312 83.8064 412.5 96.1137 412.5 111.53L412.5 111.535C412.502 112.359 412.486 113.18 412.451 114H417.455C417.487 113.178 417.502 112.353 417.5 111.527V111.53H415L417.5 111.524C417.499 94.9427 411.886 81.2521 401.819 71.7149C391.821 62.2429 377.661 57.086 360.875 57.0302C357.354 49.5119 352.322 42.7193 346.019 37.1094C334.721 27.0548 320.124 21.5 305 21.5C289.876 21.5 275.279 27.0548 263.981 37.1094C257.664 42.7317 252.624 49.5419 249.102 57.0801C248.94 57.0471 248.772 57.0298 248.6 57.0298C232.078 57.0298 218.018 62.2005 208.071 71.724C198.112 81.2593 192.501 94.9451 192.5 111.527C192.498 112.353 192.513 113.177 192.545 114H197.549C197.515 113.18 197.498 112.359 197.5 111.535L197.5 111.53C197.5 96.1129 202.689 83.7997 211.529 75.3356C220.083 67.1457 232.265 62.3605 247.04 62.0463C245.402 66.5331 244.279 71.2264 243.717 76.0396C243.704 76.1499 243.699 76.261 243.701 76.372C243.851 85.2785 245.834 94.0586 249.525 102.166C250.097 103.422 251.58 103.977 252.836 103.405C254.093 102.833 254.648 101.35 254.076 100.094C250.692 92.662 248.864 84.6173 248.703 76.4543C250.349 62.7136 256.964 50.0473 267.305 40.8445ZM245.5 170H235.917C237.425 170.452 238.954 170.846 240.5 171.181V199.53V229.93C240.5 231.311 241.619 232.43 243 232.43H366.2C367.581 232.43 368.7 231.311 368.7 229.93V199.53V171.349C370.52 170.98 372.316 170.53 374.083 170H363.7V197.03H307.1V170H302.1V197.03H245.5V170ZM304.6 202.03H245.5V227.43H363.7V202.03H304.6Z" fill="#F7DCB9"/>
<path d="M6.08 164C5.61067 164 5.22667 163.851 4.928 163.552C4.62933 163.253 4.48 162.869 4.48 162.4V120.8C4.48 120.331 4.62933 119.947 4.928 119.648C5.22667 119.349 5.61067 119.2 6.08 119.2H24C27.5413 119.2 30.6133 119.755 33.216 120.864C35.8613 121.931 37.9093 123.552 39.36 125.728C40.8533 127.904 41.6 130.656 41.6 133.984C41.6 137.269 40.8533 139.979 39.36 142.112C37.9093 144.245 35.8613 145.824 33.216 146.848C30.6133 147.872 27.5413 148.384 24 148.384H16.384V162.4C16.384 162.869 16.2133 163.253 15.872 163.552C15.5733 163.851 15.1893 164 14.72 164H6.08ZM16.192 139.552H23.68C25.5147 139.552 26.9653 139.083 28.032 138.144C29.1413 137.205 29.696 135.776 29.696 133.856C29.696 132.235 29.2267 130.869 28.288 129.76C27.3493 128.651 25.8133 128.096 23.68 128.096H16.192V139.552ZM49.33 164C48.8607 164 48.4767 163.851 48.178 163.552C47.8793 163.253 47.73 162.869 47.73 162.4V120.8C47.73 120.331 47.8793 119.947 48.178 119.648C48.4767 119.349 48.8607 119.2 49.33 119.2H79.218C79.6873 119.2 80.0713 119.349 80.37 119.648C80.6687 119.947 80.818 120.331 80.818 120.8V126.816C80.818 127.285 80.6687 127.669 80.37 127.968C80.0713 128.267 79.6873 128.416 79.218 128.416H58.802V137.056H77.81C78.2793 137.056 78.6633 137.227 78.962 137.568C79.2607 137.867 79.41 138.251 79.41 138.72V144.288C79.41 144.715 79.2607 145.099 78.962 145.44C78.6633 145.739 78.2793 145.888 77.81 145.888H58.802V154.784H79.73C80.1993 154.784 80.5833 154.933 80.882 155.232C81.1807 155.531 81.33 155.915 81.33 156.384V162.4C81.33 162.869 81.1807 163.253 80.882 163.552C80.5833 163.851 80.1993 164 79.73 164H49.33ZM122.077 172.96C121.608 172.96 121.224 172.811 120.925 172.512C120.626 172.213 120.477 171.829 120.477 171.36V164H90.205C89.7357 164 89.3517 163.851 89.053 163.552C88.7543 163.211 88.605 162.827 88.605 162.4V120.8C88.605 120.331 88.7543 119.947 89.053 119.648C89.3517 119.349 89.7357 119.2 90.205 119.2H98.461C98.9303 119.2 99.3143 119.349 99.613 119.648C99.9117 119.947 100.061 120.331 100.061 120.8V153.76H115.869V120.8C115.869 120.331 116.018 119.947 116.317 119.648C116.616 119.349 117 119.2 117.469 119.2H125.725C126.194 119.2 126.578 119.349 126.877 119.648C127.176 119.947 127.325 120.331 127.325 120.8V153.76H130.333C130.802 153.76 131.186 153.931 131.485 154.272C131.826 154.571 131.997 154.933 131.997 155.36V171.36C131.997 171.829 131.826 172.213 131.485 172.512C131.186 172.811 130.802 172.96 130.333 172.96H122.077ZM140.143 164C139.673 164 139.289 163.851 138.991 163.552C138.692 163.253 138.543 162.869 138.543 162.4V120.8C138.543 120.331 138.692 119.947 138.991 119.648C139.289 119.349 139.673 119.2 140.143 119.2H170.031C170.5 119.2 170.884 119.349 171.183 119.648C171.481 119.947 171.631 120.331 171.631 120.8V126.816C171.631 127.285 171.481 127.669 171.183 127.968C170.884 128.267 170.5 128.416 170.031 128.416H149.615V137.056H168.623C169.092 137.056 169.476 137.227 169.775 137.568C170.073 137.867 170.222 138.251 170.222 138.72V144.288C170.222 144.715 170.073 145.099 169.775 145.44C169.476 145.739 169.092 145.888 168.623 145.888H149.615V154.784H170.543C171.012 154.784 171.396 154.933 171.694 155.232C171.993 155.531 172.143 155.915 172.143 156.384V162.4C172.143 162.869 171.993 163.253 171.694 163.552C171.396 163.851 171.012 164 170.543 164H140.143ZM181.018 164C180.548 164 180.164 163.851 179.866 163.552C179.567 163.253 179.418 162.869 179.418 162.4V120.8C179.418 120.331 179.567 119.947 179.866 119.648C180.164 119.349 180.548 119.2 181.018 119.2H216.538C217.007 119.2 217.391 119.349 217.69 119.648C217.988 119.947 218.138 120.331 218.138 120.8V162.4C218.138 162.869 217.988 163.253 217.69 163.552C217.391 163.851 217.007 164 216.538 164H208.282C207.812 164 207.428 163.851 207.13 163.552C206.831 163.253 206.682 162.869 206.682 162.4V129.44H190.874V162.4C190.874 162.869 190.724 163.253 190.426 163.552C190.127 163.851 189.743 164 189.274 164H181.018ZM238.561 164C238.092 164 237.708 163.851 237.409 163.552C237.11 163.253 236.961 162.869 236.961 162.4V129.248H225.569C225.1 129.248 224.716 129.099 224.417 128.8C224.118 128.459 223.969 128.075 223.969 127.648V120.8C223.969 120.331 224.118 119.947 224.417 119.648C224.716 119.349 225.1 119.2 225.569 119.2H260.001C260.47 119.2 260.854 119.349 261.153 119.648C261.452 119.947 261.601 120.331 261.601 120.8V127.648C261.601 128.075 261.452 128.459 261.153 128.8C260.854 129.099 260.47 129.248 260.001 129.248H248.609V162.4C248.609 162.869 248.46 163.253 248.161 163.552C247.862 163.851 247.478 164 247.009 164H238.561ZM268.186 149.408C267.716 149.408 267.332 149.259 267.034 148.96C266.735 148.661 266.586 148.277 266.586 147.808V141.792C266.586 141.323 266.735 140.939 267.034 140.64C267.332 140.341 267.716 140.192 268.186 140.192H288.218C288.687 140.192 289.071 140.341 289.37 140.64C289.668 140.939 289.818 141.323 289.818 141.792V147.808C289.818 148.277 289.668 148.661 289.37 148.96C289.071 149.259 288.687 149.408 288.218 149.408H268.186ZM316.222 164.64C312.296 164.64 308.883 164 305.982 162.72C303.08 161.44 300.819 159.52 299.198 156.96C297.576 154.357 296.68 151.115 296.51 147.232C296.467 145.397 296.446 143.563 296.446 141.728C296.446 139.893 296.467 138.037 296.51 136.16C296.68 132.32 297.576 129.099 299.198 126.496C300.862 123.851 303.144 121.867 306.046 120.544C308.947 119.221 312.339 118.56 316.222 118.56C320.062 118.56 323.432 119.221 326.333 120.544C329.278 121.867 331.582 123.851 333.246 126.496C334.91 129.099 335.806 132.32 335.934 136.16C336.019 138.037 336.062 139.893 336.062 141.728C336.062 143.563 336.019 145.397 335.934 147.232C335.763 151.115 334.867 154.357 333.246 156.96C331.624 159.52 329.363 161.44 326.462 162.72C323.56 164 320.147 164.64 316.222 164.64ZM316.222 155.424C318.483 155.424 320.318 154.741 321.726 153.376C323.176 152.011 323.944 149.835 324.03 146.848C324.115 144.971 324.158 143.2 324.158 141.536C324.158 139.872 324.115 138.144 324.03 136.352C323.944 134.347 323.56 132.725 322.878 131.488C322.238 130.208 321.342 129.269 320.19 128.672C319.038 128.075 317.715 127.776 316.222 127.776C314.771 127.776 313.47 128.075 312.318 128.672C311.166 129.269 310.248 130.208 309.566 131.488C308.883 132.725 308.499 134.347 308.414 136.352C308.371 138.144 308.35 139.872 308.35 141.536C308.35 143.2 308.371 144.971 308.414 146.848C308.542 149.835 309.31 152.011 310.718 153.376C312.126 154.741 313.96 155.424 316.222 155.424ZM344.248 149.408C343.779 149.408 343.395 149.259 343.096 148.96C342.797 148.661 342.648 148.277 342.648 147.808V141.792C342.648 141.323 342.797 140.939 343.096 140.64C343.395 140.341 343.779 140.192 344.248 140.192H364.28C364.749 140.192 365.133 140.341 365.432 140.64C365.731 140.939 365.88 141.323 365.88 141.792V147.808C365.88 148.277 365.731 148.661 365.432 148.96C365.133 149.259 364.749 149.408 364.28 149.408H344.248ZM375.393 164C374.966 164 374.582 163.851 374.241 163.552C373.942 163.253 373.793 162.869 373.793 162.4V120.8C373.793 120.331 373.942 119.947 374.241 119.648C374.582 119.349 374.966 119.2 375.393 119.2H382.305C382.987 119.2 383.499 119.392 383.841 119.776C384.225 120.117 384.459 120.395 384.545 120.608L395.809 140.832L407.073 120.608C407.201 120.395 407.414 120.117 407.713 119.776C408.054 119.392 408.587 119.2 409.312 119.2H416.161C416.63 119.2 417.014 119.349 417.313 119.648C417.654 119.947 417.825 120.331 417.825 120.8V162.4C417.825 162.869 417.654 163.253 417.313 163.552C417.014 163.851 416.63 164 416.161 164H408.545C408.075 164 407.67 163.851 407.329 163.552C407.03 163.253 406.881 162.869 406.881 162.4V138.4L399.649 151.776C399.478 152.16 399.222 152.501 398.881 152.8C398.539 153.099 398.07 153.248 397.473 153.248H394.145C393.547 153.248 393.078 153.099 392.737 152.8C392.395 152.501 392.118 152.16 391.905 151.776L384.673 138.4V162.4C384.673 162.869 384.523 163.253 384.225 163.552C383.926 163.851 383.542 164 383.073 164H375.393ZM424.17 164C423.829 164 423.509 163.872 423.21 163.616C422.954 163.317 422.826 162.997 422.826 162.656C422.826 162.443 422.847 162.251 422.89 162.08L437.93 120.992C438.058 120.523 438.314 120.117 438.698 119.776C439.125 119.392 439.701 119.2 440.426 119.2H449.898C450.623 119.2 451.178 119.392 451.562 119.776C451.989 120.117 452.266 120.523 452.394 120.992L467.37 162.08C467.455 162.251 467.498 162.443 467.498 162.656C467.498 162.997 467.349 163.317 467.05 163.616C466.794 163.872 466.474 164 466.09 164H458.218C457.578 164 457.087 163.851 456.746 163.552C456.447 163.211 456.255 162.912 456.17 162.656L453.674 156.128H436.586L434.154 162.656C434.069 162.912 433.877 163.211 433.578 163.552C433.279 163.851 432.767 164 432.042 164H424.17ZM439.21 146.912H451.114L445.098 130.016L439.21 146.912ZM474.143 164C473.673 164 473.289 163.851 472.991 163.552C472.692 163.253 472.543 162.869 472.543 162.4V120.8C472.543 120.331 472.692 119.947 472.991 119.648C473.289 119.349 473.673 119.2 474.143 119.2H482.399C482.868 119.2 483.252 119.349 483.551 119.648C483.849 119.947 483.999 120.331 483.999 120.8V136.224H499.807V120.8C499.807 120.331 499.956 119.947 500.255 119.648C500.553 119.349 500.937 119.2 501.407 119.2H509.663C510.132 119.2 510.516 119.349 510.815 119.648C511.113 119.947 511.263 120.331 511.263 120.8V162.4C511.263 162.869 511.113 163.253 510.815 163.552C510.516 163.851 510.132 164 509.663 164H501.407C500.937 164 500.553 163.851 500.255 163.552C499.956 163.253 499.807 162.869 499.807 162.4V146.464H483.999V162.4C483.999 162.869 483.849 163.253 483.551 163.552C483.252 163.851 482.868 164 482.399 164H474.143ZM521.83 164C521.361 164 520.977 163.851 520.678 163.552C520.379 163.211 520.23 162.827 520.23 162.4V120.8C520.23 120.331 520.379 119.947 520.678 119.648C521.019 119.349 521.403 119.2 521.83 119.2H530.086C530.555 119.2 530.939 119.349 531.238 119.648C531.537 119.947 531.686 120.331 531.686 120.8V146.592L549.926 120.416C550.139 120.075 550.417 119.797 550.758 119.584C551.099 119.328 551.547 119.2 552.102 119.2H559.526C559.953 119.2 560.315 119.349 560.614 119.648C560.955 119.947 561.126 120.331 561.126 120.8V162.4C561.126 162.869 560.955 163.253 560.614 163.552C560.315 163.851 559.953 164 559.526 164H551.27C550.801 164 550.395 163.851 550.054 163.552C549.755 163.253 549.606 162.869 549.606 162.4V137.568L531.43 162.784C531.217 163.083 530.939 163.36 530.598 163.616C530.299 163.872 529.851 164 529.254 164H521.83ZM596.091 164C595.664 164 595.28 163.851 594.939 163.552C594.64 163.253 594.491 162.869 594.491 162.4V148.64H585.979C582.864 148.64 580.112 148.043 577.723 146.848C575.333 145.653 573.456 143.968 572.091 141.792C570.768 139.616 570.107 137.035 570.107 134.048C570.107 131.189 570.768 128.651 572.091 126.432C573.456 124.171 575.419 122.4 577.979 121.12C580.539 119.84 583.675 119.2 587.387 119.2H604.411C604.837 119.2 605.2 119.349 605.499 119.648C605.84 119.947 606.011 120.331 606.011 120.8V162.4C606.011 162.869 605.84 163.253 605.499 163.552C605.2 163.851 604.837 164 604.411 164H596.091ZM570.491 164C570.107 164 569.787 163.872 569.531 163.616C569.275 163.317 569.147 162.997 569.147 162.656C569.147 162.443 569.211 162.208 569.339 161.952L579.067 145.312L589.819 147.232L581.627 162.272C581.371 162.699 581.051 163.104 580.667 163.488C580.283 163.829 579.707 164 578.939 164H570.491ZM587.643 139.616H594.491V128.096H587.643C585.851 128.096 584.464 128.672 583.483 129.824C582.501 130.933 582.01 132.341 582.01 134.048C582.01 135.797 582.48 137.163 583.419 138.144C584.357 139.125 585.765 139.616 587.643 139.616Z" fill="#F7DCB9"/>
</svg>
